<svg width="324" height="324" viewBox="0 0 324 324" fill="none" xmlns="http://www.w3.org/2000/svg">
<rect width="324" height="324" fill="white"/>
<path d="M95.86 141C70.572 141 50 158.882 50 180.86C50 193.212 56.676 204.95 67.914 212.47C67.662 214.538 66.622 219.714 62.34 225.79C61.942 226.356 61.89 227.096 62.208 227.712C62.526 228.328 63.16 228.716 63.852 228.72C63.892 228.72 63.928 228.72 63.97 228.72C74.866 228.718 82.2 221.986 84.536 219.498C88.222 220.308 92.024 220.72 95.86 220.72C121.148 220.72 141.72 202.84 141.72 180.86C141.72 158.88 121.148 141 95.86 141ZM73.86 166.86H117.86C118.964 166.86 119.86 167.754 119.86 168.86C119.86 169.966 118.964 170.86 117.86 170.86H73.86C72.756 170.86 71.86 169.966 71.86 168.86C71.86 167.754 72.756 166.86 73.86 166.86ZM65.86 182.86C64.756 182.86 63.86 181.966 63.86 180.86C63.86 179.754 64.756 178.86 65.86 178.86H99.86C100.964 178.86 101.86 179.754 101.86 180.86C101.86 181.966 100.964 182.86 99.86 182.86H65.86ZM117.86 194.86H73.86C72.756 194.86 71.86 193.966 71.86 192.86C71.86 191.754 72.756 190.86 73.86 190.86H117.86C118.964 190.86 119.86 191.754 119.86 192.86C119.86 193.966 118.964 194.86 117.86 194.86ZM125.86 182.86H111.86C110.756 182.86 109.86 181.966 109.86 180.86C109.86 179.754 110.756 178.86 111.86 178.86H125.86C126.964 178.86 127.86 179.754 127.86 180.86C127.86 181.966 126.964 182.86 125.86 182.86Z" fill="#F7E4D2"/>
<path d="M114.044 112.651C114.512 112.651 114.842 112.737 115.036 112.908C115.229 113.079 115.326 113.363 115.326 113.762V118.838C115.326 119.259 115.241 119.561 115.07 119.744C114.91 119.915 114.637 120 114.25 120H98.9712C98.5838 120 98.3047 119.915 98.1338 119.744C97.9743 119.561 97.8945 119.259 97.8945 118.838C97.8945 118.416 97.9743 118.12 98.1338 117.949C98.3047 117.767 98.5838 117.676 98.9712 117.676H100.714V102.039H98.9712C98.5838 102.039 98.3047 101.953 98.1338 101.782C97.9743 101.6 97.8945 101.298 97.8945 100.876C97.8945 100.455 97.9743 100.159 98.1338 99.9878C98.3047 99.8055 98.5838 99.7144 98.9712 99.7144H113.908C114.295 99.7144 114.569 99.8055 114.728 99.9878C114.899 100.159 114.984 100.455 114.984 100.876V105.217C114.984 105.616 114.888 105.901 114.694 106.072C114.5 106.243 114.17 106.328 113.703 106.328C113.236 106.328 112.905 106.243 112.711 106.072C112.518 105.901 112.421 105.616 112.421 105.217V102.039H103.278V108.379H107.687V106.824C107.687 106.425 107.772 106.14 107.943 105.969C108.126 105.798 108.445 105.713 108.9 105.713C109.356 105.713 109.669 105.798 109.84 105.969C110.023 106.14 110.114 106.425 110.114 106.824V112.258C110.114 112.657 110.023 112.942 109.84 113.113C109.669 113.284 109.356 113.369 108.9 113.369C108.445 113.369 108.126 113.284 107.943 113.113C107.772 112.942 107.687 112.657 107.687 112.258V110.703H103.278V117.676H112.763V113.762C112.763 113.363 112.86 113.079 113.053 112.908C113.247 112.737 113.577 112.651 114.044 112.651ZM134.159 103.833C134.626 103.833 134.957 103.918 135.15 104.089C135.344 104.26 135.441 104.545 135.441 104.944V109.9C135.441 110.299 135.344 110.583 135.15 110.754C134.957 110.925 134.626 111.011 134.159 111.011C133.692 111.011 133.362 110.925 133.168 110.754C132.974 110.583 132.877 110.299 132.877 109.9C132.877 109.205 132.695 108.59 132.331 108.054C131.966 107.519 131.419 107.103 130.69 106.807C129.972 106.51 129.106 106.362 128.092 106.362C126.999 106.362 126.019 106.607 125.153 107.097C124.287 107.587 123.609 108.271 123.119 109.148C122.629 110.025 122.384 111.011 122.384 112.104C122.384 113.21 122.612 114.201 123.068 115.078C123.535 115.944 124.184 116.622 125.016 117.112C125.859 117.602 126.828 117.847 127.921 117.847C128.97 117.847 129.984 117.687 130.963 117.368C131.955 117.038 132.855 116.565 133.664 115.95C133.903 115.767 134.125 115.676 134.33 115.676C134.66 115.676 134.968 115.91 135.253 116.377C135.424 116.662 135.509 116.935 135.509 117.197C135.509 117.596 135.327 117.926 134.962 118.188C134.051 118.872 132.974 119.408 131.732 119.795C130.491 120.182 129.22 120.376 127.921 120.376C126.292 120.376 124.851 120.017 123.598 119.299C122.356 118.582 121.393 117.596 120.709 116.343C120.026 115.09 119.684 113.677 119.684 112.104C119.684 110.532 120.032 109.119 120.727 107.866C121.422 106.613 122.39 105.627 123.632 104.91C124.885 104.192 126.315 103.833 127.921 103.833C128.935 103.833 129.864 104.021 130.707 104.397C131.562 104.762 132.285 105.286 132.877 105.969V104.944C132.877 104.545 132.974 104.26 133.168 104.089C133.362 103.918 133.692 103.833 134.159 103.833ZM143.952 97.5781C144.339 97.5781 144.612 97.6693 144.772 97.8516C144.943 98.0225 145.028 98.3187 145.028 98.7402V107.251C145.769 106.146 146.623 105.303 147.592 104.722C148.572 104.129 149.625 103.833 150.753 103.833C151.79 103.833 152.69 104.061 153.454 104.517C154.217 104.961 154.804 105.605 155.214 106.448C155.624 107.291 155.829 108.276 155.829 109.404V117.676H157.23C157.618 117.676 157.891 117.767 158.051 117.949C158.222 118.12 158.307 118.416 158.307 118.838C158.307 119.259 158.222 119.561 158.051 119.744C157.891 119.915 157.618 120 157.23 120H151.693C151.306 120 151.027 119.915 150.856 119.744C150.696 119.561 150.617 119.259 150.617 118.838C150.617 118.416 150.696 118.12 150.856 117.949C151.027 117.767 151.306 117.676 151.693 117.676H153.266V109.661C153.266 108.647 153.032 107.843 152.565 107.251C152.098 106.659 151.409 106.362 150.497 106.362C149.529 106.362 148.623 106.641 147.78 107.2C146.948 107.758 146.282 108.527 145.78 109.507C145.279 110.487 145.028 111.58 145.028 112.788V117.676H146.601C146.988 117.676 147.261 117.767 147.421 117.949C147.592 118.12 147.677 118.416 147.677 118.838C147.677 119.259 147.592 119.561 147.421 119.744C147.261 119.915 146.988 120 146.601 120H141.063C140.676 120 140.397 119.915 140.226 119.744C140.067 119.561 139.987 119.259 139.987 118.838C139.987 118.416 140.067 118.12 140.226 117.949C140.397 117.767 140.676 117.676 141.063 117.676H142.465V99.9023H140.893C140.505 99.9023 140.226 99.8169 140.055 99.646C139.896 99.4637 139.816 99.1618 139.816 98.7402C139.816 98.3187 139.896 98.0225 140.055 97.8516C140.226 97.6693 140.505 97.5781 140.893 97.5781H143.952ZM169.979 103.833C171.54 103.833 172.947 104.186 174.201 104.893C175.454 105.599 176.434 106.584 177.14 107.849C177.858 109.102 178.217 110.521 178.217 112.104C178.217 113.688 177.858 115.112 177.14 116.377C176.434 117.63 175.454 118.61 174.201 119.316C172.947 120.023 171.54 120.376 169.979 120.376C168.419 120.376 167.012 120.023 165.758 119.316C164.505 118.61 163.52 117.63 162.802 116.377C162.095 115.112 161.742 113.688 161.742 112.104C161.742 110.521 162.095 109.102 162.802 107.849C163.52 106.584 164.505 105.599 165.758 104.893C167.012 104.186 168.419 103.833 169.979 103.833ZM169.979 106.362C168.874 106.362 167.9 106.607 167.057 107.097C166.225 107.576 165.582 108.254 165.126 109.131C164.67 109.997 164.442 110.988 164.442 112.104C164.442 113.221 164.67 114.218 165.126 115.095C165.582 115.961 166.225 116.639 167.057 117.129C167.9 117.607 168.874 117.847 169.979 117.847C171.085 117.847 172.053 117.607 172.885 117.129C173.728 116.639 174.377 115.961 174.833 115.095C175.289 114.218 175.517 113.221 175.517 112.104C175.517 110.988 175.289 109.997 174.833 109.131C174.377 108.254 173.728 107.576 172.885 107.097C172.053 106.607 171.085 106.362 169.979 106.362Z" fill="#462B19" fill-opacity="0.5"/>
<path d="M166.886 138.714C167.274 138.714 167.547 138.806 167.707 138.988C167.877 139.159 167.963 139.455 167.963 139.876V144.388C167.963 144.787 167.866 145.072 167.672 145.243C167.479 145.414 167.148 145.499 166.681 145.499C166.214 145.499 165.884 145.414 165.69 145.243C165.496 145.072 165.399 144.787 165.399 144.388V141.039H156.256V147.721H160.597V146.166C160.597 145.767 160.683 145.482 160.854 145.311C161.036 145.14 161.355 145.055 161.811 145.055C162.266 145.055 162.58 145.14 162.75 145.311C162.933 145.482 163.024 145.767 163.024 146.166V151.6C163.024 151.999 162.933 152.284 162.75 152.455C162.58 152.625 162.266 152.711 161.811 152.711C161.355 152.711 161.036 152.625 160.854 152.455C160.683 152.284 160.597 151.999 160.597 151.6V150.045H156.256V156.676H160.221C160.609 156.676 160.882 156.767 161.042 156.949C161.212 157.12 161.298 157.416 161.298 157.838C161.298 158.259 161.212 158.561 161.042 158.744C160.882 158.915 160.609 159 160.221 159H151.437C151.05 159 150.771 158.915 150.6 158.744C150.44 158.561 150.36 158.259 150.36 157.838C150.36 157.416 150.44 157.12 150.6 156.949C150.771 156.767 151.05 156.676 151.437 156.676H153.693V141.039H151.437C151.05 141.039 150.771 140.953 150.6 140.782C150.44 140.6 150.36 140.298 150.36 139.876C150.36 139.455 150.44 139.159 150.6 138.988C150.771 138.806 151.05 138.714 151.437 138.714H166.886ZM181.088 143.209C181.475 143.209 181.749 143.3 181.908 143.482C182.079 143.653 182.165 143.95 182.165 144.371V156.676H187.65C188.038 156.676 188.311 156.767 188.471 156.949C188.642 157.12 188.727 157.416 188.727 157.838C188.727 158.259 188.642 158.561 188.471 158.744C188.311 158.915 188.038 159 187.65 159H174.252C173.865 159 173.585 158.915 173.415 158.744C173.255 158.561 173.175 158.259 173.175 157.838C173.175 157.416 173.255 157.12 173.415 156.949C173.585 156.767 173.865 156.676 174.252 156.676H179.601V145.533H175.277C174.89 145.533 174.611 145.448 174.44 145.277C174.28 145.095 174.201 144.793 174.201 144.371C174.201 143.95 174.28 143.653 174.44 143.482C174.611 143.3 174.89 143.209 175.277 143.209H181.088ZM180.541 135.707C181.168 135.707 181.595 135.792 181.823 135.963C182.051 136.122 182.165 136.407 182.165 136.817V139.039C182.165 139.449 182.051 139.74 181.823 139.911C181.595 140.07 181.168 140.15 180.541 140.15C179.914 140.15 179.487 140.07 179.259 139.911C179.031 139.74 178.917 139.449 178.917 139.039V136.817C178.917 136.407 179.031 136.122 179.259 135.963C179.487 135.792 179.914 135.707 180.541 135.707ZM203.39 142.833C204.427 142.833 205.327 143.061 206.09 143.517C206.854 143.961 207.44 144.605 207.851 145.448C208.261 146.291 208.466 147.276 208.466 148.404V156.676H209.867C210.255 156.676 210.528 156.767 210.688 156.949C210.858 157.12 210.944 157.416 210.944 157.838C210.944 158.259 210.858 158.561 210.688 158.744C210.528 158.915 210.255 159 209.867 159H204.33C203.943 159 203.664 158.915 203.493 158.744C203.333 158.561 203.253 158.259 203.253 157.838C203.253 157.416 203.333 157.12 203.493 156.949C203.664 156.767 203.943 156.676 204.33 156.676H205.902V148.661C205.902 147.647 205.669 146.843 205.202 146.251C204.735 145.659 204.045 145.362 203.134 145.362C202.165 145.362 201.26 145.641 200.417 146.2C199.585 146.758 198.918 147.527 198.417 148.507C197.916 149.487 197.665 150.58 197.665 151.788V156.676H199.237C199.625 156.676 199.898 156.767 200.058 156.949C200.229 157.12 200.314 157.416 200.314 157.838C200.314 158.259 200.229 158.561 200.058 158.744C199.898 158.915 199.625 159 199.237 159H193.7C193.313 159 193.034 158.915 192.863 158.744C192.703 158.561 192.624 158.259 192.624 157.838C192.624 157.416 192.703 157.12 192.863 156.949C193.034 156.767 193.313 156.676 193.7 156.676H195.102V145.533H193.358C192.971 145.533 192.692 145.448 192.521 145.277C192.361 145.095 192.282 144.793 192.282 144.371C192.282 143.95 192.361 143.653 192.521 143.482C192.692 143.3 192.971 143.209 193.358 143.209H196.417C196.805 143.209 197.078 143.3 197.238 143.482C197.409 143.653 197.494 143.95 197.494 144.371V146.422C198.246 145.26 199.123 144.371 200.126 143.756C201.14 143.141 202.228 142.833 203.39 142.833ZM228.41 136.578C228.797 136.578 229.07 136.669 229.23 136.852C229.401 137.022 229.486 137.319 229.486 137.74V156.676H230.888C231.275 156.676 231.549 156.767 231.708 156.949C231.879 157.12 231.964 157.416 231.964 157.838C231.964 158.259 231.879 158.561 231.708 158.744C231.549 158.915 231.275 159 230.888 159H228.17C227.783 159 227.504 158.915 227.333 158.744C227.174 158.561 227.094 158.259 227.094 157.838V156.471C226.376 157.405 225.544 158.123 224.599 158.624C223.653 159.125 222.622 159.376 221.505 159.376C220.093 159.376 218.828 159.046 217.711 158.385C216.595 157.713 215.718 156.756 215.08 155.514C214.442 154.26 214.123 152.791 214.123 151.104C214.123 149.418 214.442 147.954 215.08 146.712C215.718 145.459 216.595 144.502 217.711 143.841C218.828 143.169 220.093 142.833 221.505 142.833C223.647 142.833 225.453 143.773 226.923 145.653V138.902H224.154C223.767 138.902 223.488 138.817 223.317 138.646C223.157 138.464 223.078 138.162 223.078 137.74C223.078 137.319 223.157 137.022 223.317 136.852C223.488 136.669 223.767 136.578 224.154 136.578H228.41ZM221.676 145.362C220.662 145.362 219.791 145.607 219.062 146.097C218.332 146.576 217.774 147.248 217.387 148.114C217.011 148.98 216.823 149.977 216.823 151.104C216.823 152.232 217.011 153.229 217.387 154.095C217.774 154.961 218.332 155.639 219.062 156.129C219.791 156.607 220.662 156.847 221.676 156.847C222.69 156.847 223.59 156.619 224.376 156.163C225.174 155.707 225.795 155.047 226.239 154.181C226.695 153.315 226.923 152.289 226.923 151.104C226.923 149.92 226.695 148.894 226.239 148.028C225.795 147.162 225.174 146.502 224.376 146.046C223.59 145.59 222.69 145.362 221.676 145.362ZM243.585 142.833C245.237 142.833 246.645 143.169 247.807 143.841C248.98 144.502 249.88 145.425 250.507 146.61C251.133 147.783 251.492 149.139 251.583 150.677C251.583 151.065 251.498 151.338 251.327 151.498C251.168 151.657 250.894 151.737 250.507 151.737H238.134C238.214 153.434 238.715 154.722 239.638 155.599C240.572 156.465 241.888 156.898 243.585 156.898C244.634 156.898 245.67 156.767 246.696 156.505C247.721 156.231 248.621 155.873 249.396 155.428C249.59 155.326 249.766 155.274 249.926 155.274C250.325 155.274 250.649 155.576 250.9 156.18C251.002 156.419 251.054 156.636 251.054 156.83C251.054 157.285 250.803 157.639 250.302 157.889C249.424 158.333 248.388 158.692 247.191 158.966C245.995 159.239 244.793 159.376 243.585 159.376C241.865 159.376 240.395 159.046 239.176 158.385C237.957 157.724 237.029 156.773 236.391 155.531C235.753 154.289 235.434 152.813 235.434 151.104C235.434 149.475 235.781 148.034 236.476 146.781C237.171 145.528 238.134 144.559 239.364 143.875C240.595 143.181 242.002 142.833 243.585 142.833ZM243.585 145.311C242.184 145.311 241.022 145.67 240.099 146.388C239.188 147.094 238.59 148.08 238.305 149.344H248.747C248.507 148.034 247.955 147.037 247.089 146.354C246.234 145.659 245.067 145.311 243.585 145.311ZM269.647 142.833C270.536 142.833 271.368 143.061 272.143 143.517C272.598 143.79 272.826 144.143 272.826 144.576C272.826 144.781 272.775 145.021 272.672 145.294C272.433 145.943 272.103 146.268 271.681 146.268C271.51 146.268 271.351 146.222 271.203 146.131C270.644 145.824 270.046 145.67 269.408 145.67C268.383 145.67 267.352 146.029 266.315 146.747C265.278 147.453 264.424 148.399 263.751 149.583C263.091 150.768 262.76 152.027 262.76 153.36V156.676H268.52C268.907 156.676 269.18 156.767 269.34 156.949C269.511 157.12 269.596 157.416 269.596 157.838C269.596 158.259 269.511 158.561 269.34 158.744C269.18 158.915 268.907 159 268.52 159H257.514C257.126 159 256.847 158.915 256.676 158.744C256.517 158.561 256.437 158.259 256.437 157.838C256.437 157.416 256.517 157.12 256.676 156.949C256.847 156.767 257.126 156.676 257.514 156.676H260.197V145.533H258.026C257.639 145.533 257.36 145.448 257.189 145.277C257.029 145.095 256.95 144.793 256.95 144.371C256.95 143.95 257.029 143.653 257.189 143.482C257.36 143.3 257.639 143.209 258.026 143.209H261.513C261.9 143.209 262.174 143.3 262.333 143.482C262.504 143.653 262.589 143.95 262.589 144.371V147.823C263.136 146.821 263.797 145.943 264.572 145.191C265.347 144.439 266.173 143.858 267.05 143.448C267.927 143.038 268.793 142.833 269.647 142.833Z" fill="#311E12"/>
<path d="M132.34 175.62C117.897 175.62 106.16 187.357 106.16 201.8C106.16 216.244 117.897 227.98 132.34 227.98C138.055 227.98 143.337 226.139 147.644 223.023L167.904 243.236L172.236 238.904L152.216 218.836C156.15 214.252 158.52 208.303 158.52 201.8C158.52 187.357 146.784 175.62 132.34 175.62ZM132.34 178.7C145.117 178.7 155.44 189.023 155.44 201.8C155.44 214.577 145.117 224.9 132.34 224.9C119.563 224.9 109.24 214.577 109.24 201.8C109.24 189.023 119.563 178.7 132.34 178.7Z" fill="#462B19"/>
</svg>
