<svg width="300" height="300" viewBox="0 0 300 300" fill="none" xmlns="http://www.w3.org/2000/svg">
<rect width="300" height="300" fill="white"/>
<path d="M143 113V205H215V113H143ZM179 183H157C155.898 183 155 182.102 155 181C155 179.898 155.898 179 157 179H179C180.102 179 181 179.898 181 181C181 182.102 180.102 183 179 183ZM179 167H157C155.898 167 155 166.102 155 165C155 163.898 155.898 163 157 163H179C180.102 163 181 163.898 181 165C181 166.102 180.102 167 179 167ZM179 151H157C155.898 151 155 150.102 155 149C155 147.898 155.898 147 157 147H179C180.102 147 181 147.898 181 149C181 150.102 180.102 151 179 151ZM179 135H157C155.898 135 155 134.102 155 133C155 131.898 155.898 131 157 131H179C180.102 131 181 131.898 181 133C181 134.102 180.102 135 179 135ZM191 187C191 188.102 190.102 189 189 189C187.898 189 187 188.102 187 187V129C187 127.898 187.898 127 189 127C190.102 127 191 127.898 191 129V187ZM201 183H199C197.898 183 197 182.102 197 181C197 179.898 197.898 179 199 179H201C202.102 179 203 179.898 203 181C203 182.102 202.102 183 201 183ZM201 167H199C197.898 167 197 166.102 197 165C197 163.898 197.898 163 199 163H201C202.102 163 203 163.898 203 165C203 166.102 202.102 167 201 167ZM201 151H199C197.898 151 197 150.102 197 149C197 147.898 197.898 147 199 147H201C202.102 147 203 147.898 203 149C203 150.102 202.102 151 201 151ZM201 135H199C197.898 135 197 134.102 197 133C197 131.898 197.898 131 199 131H201C202.102 131 203 131.898 203 133C203 134.102 202.102 135 201 135Z" fill="#462B19" fill-opacity="0.5"/>
<path d="M119.86 125C94.572 125 74 142.882 74 164.86C74 177.212 80.676 188.95 91.914 196.47C91.662 198.538 90.622 203.714 86.34 209.79C85.942 210.356 85.89 211.096 86.208 211.712C86.526 212.328 87.16 212.716 87.852 212.72C87.892 212.72 87.928 212.72 87.97 212.72C98.866 212.718 106.2 205.986 108.536 203.498C112.222 204.308 116.024 204.72 119.86 204.72C145.148 204.72 165.72 186.84 165.72 164.86C165.72 142.88 145.148 125 119.86 125ZM97.86 150.86H141.86C142.964 150.86 143.86 151.754 143.86 152.86C143.86 153.966 142.964 154.86 141.86 154.86H97.86C96.756 154.86 95.86 153.966 95.86 152.86C95.86 151.754 96.756 150.86 97.86 150.86ZM89.86 166.86C88.756 166.86 87.86 165.966 87.86 164.86C87.86 163.754 88.756 162.86 89.86 162.86H123.86C124.964 162.86 125.86 163.754 125.86 164.86C125.86 165.966 124.964 166.86 123.86 166.86H89.86ZM141.86 178.86H97.86C96.756 178.86 95.86 177.966 95.86 176.86C95.86 175.754 96.756 174.86 97.86 174.86H141.86C142.964 174.86 143.86 175.754 143.86 176.86C143.86 177.966 142.964 178.86 141.86 178.86ZM149.86 166.86H135.86C134.756 166.86 133.86 165.966 133.86 164.86C133.86 163.754 134.756 162.86 135.86 162.86H149.86C150.964 162.86 151.86 163.754 151.86 164.86C151.86 165.966 150.964 166.86 149.86 166.86Z" fill="#F7E4D2"/>
<path d="M96.9508 99.2V96H114.751V99.2H107.551V124H104.151V99.2H96.9508ZM121.28 124.4C119.573 124.4 118.053 124 116.72 123.2C115.413 122.373 114.387 121.24 113.64 119.8C112.92 118.36 112.56 116.693 112.56 114.8C112.56 112.88 112.933 111.2 113.68 109.76C114.453 108.32 115.52 107.2 116.88 106.4C118.267 105.6 119.867 105.2 121.68 105.2C123.493 105.2 125.04 105.587 126.32 106.36C127.627 107.107 128.627 108.187 129.32 109.6C130.013 111.013 130.36 112.693 130.36 114.64C130.36 114.827 130.347 115.027 130.32 115.24C130.32 115.427 130.32 115.547 130.32 115.6H114.6V112.88H127.8L126.52 114.72C126.6 114.587 126.68 114.387 126.76 114.12C126.84 113.827 126.88 113.587 126.88 113.4C126.88 112.307 126.653 111.36 126.2 110.56C125.773 109.76 125.173 109.133 124.4 108.68C123.627 108.227 122.72 108 121.68 108C120.453 108 119.4 108.267 118.52 108.8C117.667 109.307 117 110.053 116.52 111.04C116.067 112 115.827 113.187 115.8 114.6C115.8 116.04 116.027 117.267 116.48 118.28C116.933 119.293 117.6 120.067 118.48 120.6C119.36 121.133 120.427 121.4 121.68 121.4C122.933 121.4 124.04 121.133 125 120.6C125.96 120.04 126.773 119.2 127.44 118.08L130.04 119.72C129.08 121.267 127.867 122.44 126.4 123.24C124.96 124.013 123.253 124.4 121.28 124.4ZM134.746 92.8H137.946V124H134.746V92.8ZM151.085 124.4C149.378 124.4 147.858 124 146.525 123.2C145.218 122.373 144.192 121.24 143.445 119.8C142.725 118.36 142.365 116.693 142.365 114.8C142.365 112.88 142.738 111.2 143.485 109.76C144.258 108.32 145.325 107.2 146.685 106.4C148.072 105.6 149.672 105.2 151.485 105.2C153.298 105.2 154.845 105.587 156.125 106.36C157.432 107.107 158.432 108.187 159.125 109.6C159.818 111.013 160.165 112.693 160.165 114.64C160.165 114.827 160.152 115.027 160.125 115.24C160.125 115.427 160.125 115.547 160.125 115.6H144.405V112.88H157.605L156.325 114.72C156.405 114.587 156.485 114.387 156.565 114.12C156.645 113.827 156.685 113.587 156.685 113.4C156.685 112.307 156.458 111.36 156.005 110.56C155.578 109.76 154.978 109.133 154.205 108.68C153.432 108.227 152.525 108 151.485 108C150.258 108 149.205 108.267 148.325 108.8C147.472 109.307 146.805 110.053 146.325 111.04C145.872 112 145.632 113.187 145.605 114.6C145.605 116.04 145.832 117.267 146.285 118.28C146.738 119.293 147.405 120.067 148.285 120.6C149.165 121.133 150.232 121.4 151.485 121.4C152.738 121.4 153.845 121.133 154.805 120.6C155.765 120.04 156.578 119.2 157.245 118.08L159.845 119.72C158.885 121.267 157.672 122.44 156.205 123.24C154.765 124.013 153.058 124.4 151.085 124.4ZM164.751 96H168.151V124H164.751V96ZM173.151 124H166.631V120.6H173.151C174.724 120.6 176.164 120.36 177.471 119.88C178.777 119.373 179.897 118.667 180.831 117.76C181.764 116.827 182.484 115.707 182.991 114.4C183.497 113.093 183.751 111.627 183.751 110C183.751 108.373 183.497 106.907 182.991 105.6C182.484 104.293 181.764 103.187 180.831 102.28C179.897 101.347 178.777 100.64 177.471 100.16C176.164 99.6533 174.724 99.4 173.151 99.4H166.631V96H173.151C175.871 96 178.284 96.5867 180.391 97.76C182.497 98.9333 184.151 100.573 185.351 102.68C186.551 104.76 187.151 107.2 187.151 110C187.151 112.8 186.551 115.253 185.351 117.36C184.151 119.44 182.497 121.067 180.391 122.24C178.284 123.413 175.871 124 173.151 124ZM194.938 105.6V124H191.738V105.6H194.938ZM200.498 109.12C200.072 108.8 199.685 108.573 199.338 108.44C198.992 108.28 198.552 108.2 198.018 108.2C197.218 108.2 196.592 108.4 196.138 108.8C195.685 109.2 195.365 109.747 195.178 110.44C195.018 111.133 194.938 111.92 194.938 112.8H193.498C193.498 111.333 193.752 110.04 194.258 108.92C194.792 107.773 195.472 106.867 196.298 106.2C197.125 105.533 197.965 105.2 198.818 105.2C199.485 105.2 200.098 105.293 200.658 105.48C201.245 105.64 201.778 105.973 202.258 106.48L200.498 109.12Z" fill="black"/>
</svg>
